<?xml version="1.0" encoding="UTF-8"?>
<svg id="Layer_2" xmlns="http://www.w3.org/2000/svg" version="1.1" viewBox="0 0 1417.32 1417.32">
  <!-- Generator: Adobe Illustrator 30.2.1, SVG Export Plug-In . SVG Version: 2.1.1 Build 1)  -->
  <defs>
    <style>
      .st0 {
        fill: #c63237;
      }

      .st1 {
        fill: #222221;
      }

      .st2 {
        fill: #edbe20;
      }

      .st3 {
        fill: #f8db1c;
      }
    </style>
  </defs>
  <polygon class="st2" points="708.66 0 101.95 156.18 101.95 301.62 1315.37 301.62 1315.37 156.18 708.66 0"/>
  <path class="st3" d="M708.66,137.51l606.71,154.52c0,49.88,0,22.76,0,72.64-2.62,177.98-41.63,578.84-395.71,897.72-68.66,61.83-140.54,112.81-211,154.93-70.46-42.12-142.34-93.1-211-154.93C143.58,943.52,104.57,542.66,101.95,364.68c0-49.88,0-22.76,0-72.64l606.71-154.52Z"/>
  <path class="st0" d="M577.35,687.82h445.49c-8.59,29.45-49.09,117.2-200.65,117.2h-107.39l-39.91,211h-168.13l70.6-328.21ZM468.73,500.05h482.32c35.59,0,88.98,27.61,88.98,93.88,0,11.05-1.23,22.7-4.3,35.59H377.3l91.43-129.47Z"/>
  <path class="st1" d="M449.6,122.75c14.22-3.62,21.94,1.74,26.26,18.71,4.32,16.97.11,25.37-14.11,29l-54.13,13.79,4.21,16.51-21.1,5.38-16.36-64.23,75.24-19.16ZM454.76,146.84c-1.4-5.5-3.01-6.07-6.22-5.25l-48.63,12.39,3.27,12.85,48.63-12.39c3.21-.82,4.35-2.09,2.95-7.59Z"/>
  <path class="st1" d="M479.88,115.05l21.1-5.37,16.36,64.22-21.1,5.38-16.36-64.23Z"/>
  <path class="st1" d="M513.89,106.38l75.24-19.16c14.22-3.62,21.7.82,25.33,15.04,2.52,9.91.97,16.46-5.44,20.83,5.21-.25,9.03,2.1,12.39,7.59l8.86,14.45-22.02,5.61-6.8-10.97c-1.62-2.52-3.65-3.96-7.77-2.9l-46.52,11.85,4.21,16.51-21.1,5.38-16.36-64.23ZM594.28,111.31c-1.4-5.5-3.01-6.07-6.22-5.25l-48.63,12.39,3.27,12.85,48.63-12.39c3.21-.82,4.35-2.09,2.95-7.59Z"/>
  <path class="st1" d="M649.44,57.3l109.4-1.21.22,19.89-83.98.93.09,8.29,81.77-.91.22,19.89-81.77.9.11,9.39,85.09-.94.22,19.89-110.5,1.22-.86-77.35Z"/>
  <path class="st1" d="M807.29,80.75l20.18,5.18-12.01,46.77,68.79,17.66-4.47,17.43-88.96-22.85,16.49-64.2Z"/>
  <path class="st1" d="M904.54,105.72l20.18,5.18-12.01,46.77,68.79,17.66-4.47,17.43-88.96-22.85,16.49-64.2Z"/>
  <path class="st1" d="M1001.77,130.69l21.1,5.42-16.49,64.2-21.1-5.42,16.49-64.2Z"/>
</svg>