<?xml version="1.0" encoding="UTF-8"?>
<svg id="Layer_2" xmlns="http://www.w3.org/2000/svg" version="1.1" viewBox="0 0 1417.32 1417.32">
  <!-- Generator: Adobe Illustrator 30.2.1, SVG Export Plug-In . SVG Version: 2.1.1 Build 1)  -->
  <defs>
    <style>
      .st0 {
        fill: none;
        stroke-width: 40px;
      }

      .st0, .st1 {
        stroke: #222221;
        stroke-miterlimit: 10;
      }

      .st1 {
        fill: #222221;
        stroke-width: 15px;
      }
    </style>
  </defs>
  <polyline class="st0" points="1062.39 471.35 1062.39 386.55 708.66 295.5 354.94 386.55 354.94 471.35"/>
  <path class="st0" d="M708.66,375.67l353.72,90.09c0,29.08,0,13.27,0,42.35-1.53,103.77-24.27,337.48-230.71,523.39-40.03,36.05-81.94,65.77-123.02,90.33-41.08-24.56-82.99-54.28-123.02-90.33-206.44-185.91-229.18-419.62-230.71-523.39,0-29.08,0-13.27,0-42.35l353.72-90.09Z"/>
  <path class="st1" d="M632.11,696.51h259.73c-5.01,17.17-28.62,68.33-116.99,68.33h-62.61l-23.27,123.02h-98.03l41.16-191.35ZM568.77,587.04h281.21c20.75,0,51.88,16.1,51.88,54.74,0,6.44-.72,13.24-2.5,20.75h-383.88l53.31-75.49Z"/>
</svg>